<svg width="872" height="250" viewBox="0 0 872 250" fill="none" xmlns="http://www.w3.org/2000/svg">
<path d="M411.754 60.4229C426.074 60.4229 437.462 65.229 445.92 74.8414C454.378 84.4538 458.607 96.9772 458.607 112.387V186.784H433.233V117.416C433.233 106.28 430.834 97.77 426.037 91.8985C421.239 86.027 414.19 83.0789 404.904 83.0789C395.618 83.0789 387.37 86.5968 381.138 93.6079C374.893 100.631 371.765 109.637 371.765 120.624V186.784H346.391V63.1604H363.987L369.019 80.3289C373.731 74.0734 379.79 69.1805 387.184 65.675C394.566 62.1818 402.752 60.4229 411.754 60.4229Z" fill="white"/>
<path d="M610.344 125.208C610.344 127.499 610.196 130.324 609.887 133.681H509.788C511.309 143.603 515.464 151.456 522.24 157.253C529.017 163.05 537.438 165.949 547.491 165.949C552.363 165.949 556.938 165.231 561.204 163.769C565.47 162.332 569.242 160.263 572.518 157.588C575.795 154.912 578.491 151.679 580.63 147.851H607.364C602.492 160.982 594.714 171.238 584.055 178.646C573.396 186.053 561.204 189.745 547.491 189.745C529.363 189.745 514.24 183.563 502.122 171.201C490.004 158.839 483.957 143.429 483.957 124.96C483.957 106.491 490.016 91.0689 502.122 78.7066C514.24 66.3443 529.363 60.1631 547.491 60.1631C559.831 60.1631 570.8 63.0988 580.395 68.9827C589.991 74.8666 597.385 82.72 602.567 92.5678C607.748 102.416 610.332 113.291 610.332 125.183L610.344 125.208ZM547.503 83.0916C538.056 83.0916 530.018 85.7672 523.39 91.1061C516.763 96.4573 512.373 103.778 510.246 113.081H584.983C583.462 106.825 580.939 101.449 577.44 96.9404C573.94 92.4439 569.637 89.0003 564.53 86.6343C559.423 84.2684 553.748 83.0916 547.503 83.0916Z" fill="white"/>
<path d="M734.433 186.784H705.869L675.017 139.627L643.943 186.784H616.059L659.944 122.917L619.484 63.1611H647.825L675.24 104.831L703.346 63.1611H731.23L690.091 121.542L734.421 186.784H734.433Z" fill="white"/>
<path d="M852.349 63.1617H871.998V186.785H851.434L848.924 171.685C837.041 183.738 822.19 189.77 804.359 189.77C786.528 189.77 770.576 183.589 758.31 171.227C746.043 158.865 739.91 143.418 739.91 124.874C739.91 106.331 746.043 90.9212 758.31 78.6332C770.564 66.3452 785.922 60.2012 804.359 60.2012C822.796 60.2012 837.498 66.308 849.382 78.5217L852.349 63.1865V63.1617ZM777.279 153.934C784.97 161.639 794.64 165.492 806.3 165.492C817.961 165.492 827.557 161.639 835.087 153.934C842.63 146.23 846.401 136.531 846.401 124.862C846.401 113.193 842.63 103.531 835.087 95.9008C827.544 88.2704 817.911 84.4427 806.177 84.4427C798.547 84.4427 791.66 86.2017 785.502 89.7073C779.331 93.2128 774.484 98.0686 770.985 104.25C767.485 110.431 765.729 117.343 765.729 124.973C765.729 136.568 769.575 146.217 777.279 153.934Z" fill="white"/>
<path d="M250.098 82.743V115.908H216.921C203.232 115.908 192.128 104.808 192.128 91.1238V57.9588L57.9792 57.9588V91.1238C57.9792 104.808 46.8751 115.908 33.1863 115.908H0L0 82.743C0 69.0493 11.104 57.9492 24.7929 57.9492H54.3295C56.3431 57.9492 57.9695 56.3137 57.9695 54.3104V24.7842C57.9695 11.0905 69.0639 0 82.7624 0L163.114 0C179.127 0 192.109 11.1001 192.109 24.7842V54.3104C192.109 56.3233 193.735 57.9492 195.749 57.9492H225.285C238.984 57.9492 250.088 69.0493 250.088 82.7334L250.098 82.743Z" fill="white"/>
<path d="M250.1 134.092V167.257C250.1 180.95 238.996 192.051 225.307 192.051H195.77C193.757 192.051 192.13 193.686 192.13 195.689V225.216C192.13 238.909 181.036 250 167.337 250H86.9853C70.9731 250 57.9909 238.9 57.9909 225.216V195.689C57.9909 193.676 56.3645 192.051 54.3509 192.051H24.8143C11.1158 192.051 0.0117187 180.95 0.0117187 167.266L0.0117188 134.101H33.1883C46.8772 134.101 57.9812 145.202 57.9812 158.886V192.051H192.13V158.886C192.13 145.202 203.234 134.101 216.923 134.101H250.1V134.092Z" fill="white"/>
</svg>
