<svg xmlns="http://www.w3.org/2000/svg" width="110" height="30" viewBox="0 0 110 30" fill="none">
  <mask id="path-1-outside-1_313_11" maskUnits="userSpaceOnUse" x="0" y="0" width="110" height="30" fill="black">
    <rect fill="white" width="110" height="30"/>
    <path d="M6.06343 15.5617H1.56962C1.33954 15.5617 1.13103 15.425 1.04475 15.2093C0.958466 14.9936 1.0088 14.7492 1.16698 14.591L14.5909 1.1671C14.7562 1.00173 15.0007 0.958588 15.2092 1.04487C15.4249 1.13115 15.5615 1.33966 15.5615 1.56975V6.06355C15.5615 6.21454 15.504 6.35834 15.3962 6.4662L6.46607 15.3963C6.36541 15.5041 6.21442 15.5617 6.06343 15.5617ZM2.95012 14.4184H5.83335L14.4255 5.82628V2.94305L2.95012 14.4184Z"/>
    <path d="M14.9939 29.0001C14.8429 29.0001 14.6991 28.9425 14.5913 28.8347L1.16736 15.3964C0.944468 15.1735 0.944086 14.8139 1.16698 14.591C1.38987 14.3681 1.74976 14.3682 1.97265 14.5911L14.4187 27.0516V24.1683L5.66117 15.3964C5.43827 15.1735 5.43827 14.814 5.66117 14.5911C5.88406 14.3682 6.24356 14.3682 6.46645 14.5911L15.3894 23.5356C15.4972 23.6435 15.5547 23.7873 15.5547 23.9382V28.4321C15.5547 28.6621 15.4181 28.8706 15.2024 28.9569C15.1377 28.9857 15.0658 29.0001 14.9939 29.0001ZM28.4178 15.5618H23.924C23.773 15.5618 23.6292 15.5043 23.5213 15.3964L14.5913 6.46633C14.3684 6.24344 14.3684 5.88394 14.5913 5.66104C14.8141 5.43815 15.1737 5.43815 15.3965 5.66104L24.1541 14.4186H27.0373L14.5913 1.97253C14.3684 1.74963 14.368 1.38999 14.5909 1.1671C14.8138 0.944208 15.1737 0.944346 15.3965 1.16724L28.8204 14.5911C28.9858 14.7565 29.029 15.001 28.9427 15.2095C28.8564 15.418 28.6479 15.5618 28.4178 15.5618Z"/>
    <path d="M14.9939 29.0001C14.8501 29.0001 14.6991 28.9425 14.5913 28.8347C14.3684 28.6118 14.3684 28.2523 14.5913 28.0295L28.0151 14.5912C28.238 14.3683 28.5975 14.3682 28.8204 14.5911C29.0433 14.814 29.0433 15.1736 28.8204 15.3965L15.3965 28.8347C15.2815 28.9426 15.1377 29.0001 14.9939 29.0001ZM14.9939 24.5063C14.8501 24.5063 14.7063 24.4488 14.5913 24.3409C14.3684 24.118 14.3684 23.7585 14.5913 23.5357L23.5142 14.5912C23.737 14.3683 24.0966 14.3683 24.3194 14.5912C24.5423 14.8141 24.5423 15.1736 24.3194 15.3965L15.3965 24.3338C15.2815 24.4488 15.1377 24.5063 14.9939 24.5063Z"/>
    <path d="M14.9939 24.5063C14.6775 24.5063 14.4255 24.2547 14.4255 23.9384V19.7609C14.4255 19.6099 14.483 19.4661 14.5909 19.3583L19.3579 14.5913C19.4657 14.4834 19.6095 14.4259 19.7605 14.4259H23.9236C24.24 14.4259 24.4916 14.6775 24.4916 14.9939C24.4916 15.3103 24.2404 15.5618 23.924 15.5618L19.9978 15.5619L15.5687 19.991V23.9312C15.5615 24.2475 15.3103 24.5063 14.9939 24.5063Z"/>
    <path d="M14.9939 24.5063C14.6775 24.5063 14.4255 24.2547 14.4255 23.9384L14.4256 19.9983L9.99654 15.5693H6.06356C5.7472 15.5693 5.49554 15.3176 5.49554 15.0012C5.49554 14.6849 5.7472 14.4332 6.06356 14.4332H10.2266C10.3776 14.4332 10.5214 14.4907 10.6293 14.5986L15.3963 19.3656C15.5041 19.4735 15.5617 19.6173 15.5617 19.7683V23.9457C15.5617 24.2477 15.3103 24.5063 14.9939 24.5063ZM23.9165 15.5621H19.7535C19.6025 15.5621 19.4587 15.5045 19.3508 15.3967L14.5838 10.6297C14.476 10.5218 14.4184 10.378 14.4184 10.227V6.06396C14.4184 5.74759 14.6773 5.49594 14.9865 5.49594C15.3028 5.49594 15.5545 5.74759 15.5545 6.06396V9.98974L19.9836 14.4188H23.9094C24.2257 14.4188 24.4774 14.6705 24.4774 14.9869C24.4918 15.3032 24.2329 15.5621 23.9165 15.5621Z"/>
    <path d="M10.2266 15.5619L6.06343 15.5617C5.74707 15.5617 5.49554 15.3102 5.49554 14.9939C5.49554 14.6775 5.7472 14.4259 6.06356 14.4259H9.98935L14.4184 9.99677V6.07098C14.4184 5.75461 14.6773 5.50296 14.9865 5.50296C15.3028 5.50296 15.5545 5.75461 15.5545 6.07098V10.234C15.5545 10.385 15.497 10.5288 15.3891 10.6367L10.6221 15.4037C10.5214 15.5044 10.3776 15.5619 10.2266 15.5619Z"/>
    <path d="M36.6985 23.0001V11.443H38.7161V23.0001H36.6985ZM36.6985 9.60087V7.01313H38.7161V9.60087H36.6985Z"/>
    <path d="M41.309 23.0001V11.443H43.2388L43.3046 13.7895H43.4362C43.787 12.9561 44.3207 12.3275 45.0371 11.9035C45.7534 11.4795 46.5429 11.2675 47.4055 11.2675C48.0049 11.2675 48.5532 11.3553 49.0502 11.5307C49.5619 11.7061 50.0005 11.9912 50.366 12.386C50.7461 12.7807 51.0385 13.2924 51.2432 13.9211C51.4479 14.5351 51.5502 15.2807 51.5502 16.1579V23.0001H49.5327V16.5746C49.5327 15.7559 49.4304 15.076 49.2257 14.5351C49.021 13.9942 48.714 13.5994 48.3046 13.3509C47.8953 13.0877 47.3689 12.9561 46.7257 12.9561C46.0239 12.9561 45.4172 13.1243 44.9055 13.4605C44.3938 13.7968 43.999 14.25 43.7213 14.8202C43.4435 15.3758 43.3046 16.0117 43.3046 16.7281V23.0001H41.309Z"/>
    <path d="M57.9834 23.2194C56.9893 23.2194 56.134 23.0585 55.4176 22.7369C54.7012 22.4153 54.153 21.9694 53.7729 21.3992C53.3928 20.8144 53.2027 20.1419 53.2027 19.3816H55.1983C55.2129 20.1857 55.4761 20.7778 55.9878 21.158C56.5141 21.5381 57.2013 21.7281 58.0492 21.7281C58.8826 21.7281 59.5185 21.5673 59.9571 21.2457C60.4103 20.924 60.637 20.4781 60.637 19.9079C60.637 19.4693 60.5419 19.1331 60.3519 18.8992C60.1618 18.6506 59.8621 18.4606 59.4527 18.329C59.0434 18.1828 58.5024 18.0658 57.8299 17.9781C56.8796 17.8319 56.0828 17.6418 55.4396 17.4079C54.7963 17.1594 54.3138 16.8231 53.9922 16.3992C53.6852 15.9606 53.5317 15.3831 53.5317 14.6667C53.5317 13.9795 53.7144 13.3801 54.0799 12.8684C54.46 12.3567 54.9863 11.9547 55.6589 11.6623C56.3314 11.3699 57.1135 11.2237 58.0054 11.2237C58.9264 11.2237 59.7159 11.3772 60.3738 11.6842C61.0463 11.9766 61.558 12.3933 61.9089 12.9342C62.2744 13.4752 62.4645 14.1111 62.4791 14.8421H60.4834C60.4834 14.345 60.3738 13.943 60.1545 13.636C59.9498 13.329 59.6574 13.1023 59.2773 12.9561C58.9118 12.8099 58.4805 12.7368 57.9834 12.7368C57.2086 12.7368 56.6092 12.8977 56.1852 13.2193C55.7612 13.5263 55.5492 13.943 55.5492 14.4693C55.5492 14.8641 55.6515 15.1857 55.8562 15.4342C56.0609 15.6682 56.3825 15.8582 56.8211 16.0044C57.2744 16.136 57.8519 16.2456 58.5536 16.3334C59.2115 16.4357 59.7963 16.56 60.308 16.7062C60.8197 16.8524 61.251 17.0571 61.6019 17.3202C61.9674 17.5834 62.2378 17.9123 62.4133 18.3071C62.6033 18.6872 62.6984 19.1623 62.6984 19.7325C62.6984 20.8436 62.2671 21.7062 61.4045 22.3202C60.5419 22.9197 59.4016 23.2194 57.9834 23.2194Z"/>
    <path d="M64.493 23.0001V11.443H66.5106V23.0001H64.493ZM64.493 9.60087V7.01313H66.5106V9.60087H64.493Z"/>
    <path d="M69.4763 23.0001V7.01313H75.836C77.3711 7.01313 78.6722 7.34939 79.7395 8.02191C80.8067 8.67981 81.6255 9.60818 82.1956 10.807C82.7658 12.0058 83.0509 13.4094 83.0509 15.0176C83.0509 16.2164 82.8901 17.3056 82.5685 18.2851C82.2468 19.2647 81.7717 20.1053 81.143 20.8071C80.529 21.5088 79.776 22.0498 78.8842 22.4299C77.9924 22.81 76.9763 23.0001 75.836 23.0001H69.4763ZM71.6035 21.136H75.5509C76.355 21.136 77.0787 21.0118 77.7219 20.7632C78.3798 20.5001 78.9427 20.1126 79.4105 19.6009C79.8784 19.0892 80.2366 18.4459 80.4851 17.6711C80.7336 16.8962 80.8579 15.9971 80.8579 14.9737C80.8579 13.5994 80.6386 12.4591 80.2 11.5526C79.7614 10.6462 79.1401 9.97367 78.336 9.53508C77.5465 9.08186 76.6181 8.85525 75.5509 8.85525H71.6035V21.136Z"/>
    <path d="M89.56 23.1974C88.4489 23.1974 87.4986 22.9562 86.7091 22.4737C85.9196 21.9913 85.3129 21.3042 84.8889 20.4123C84.4796 19.5205 84.2749 18.4752 84.2749 17.2764C84.2749 16.0483 84.4796 14.9883 84.8889 14.0965C85.3129 13.1901 85.9123 12.4956 86.6872 12.0132C87.462 11.5161 88.3977 11.2675 89.4942 11.2675C90.693 11.2675 91.6799 11.538 92.4548 12.079C93.2296 12.6199 93.7925 13.3655 94.1434 14.3158C94.4942 15.2515 94.6258 16.3407 94.5381 17.5834H86.2266C86.2559 18.4898 86.4021 19.2427 86.6652 19.8422C86.943 20.4416 87.3305 20.8948 87.8275 21.2018C88.3246 21.4942 88.9021 21.6404 89.56 21.6404C90.3787 21.6404 91.0439 21.443 91.5556 21.0483C92.0819 20.6536 92.4182 20.1346 92.5644 19.4913H94.4723C94.37 20.2661 94.0922 20.9313 93.639 21.4869C93.2004 22.0425 92.6302 22.4664 91.9284 22.7588C91.2267 23.0512 90.4372 23.1974 89.56 23.1974ZM86.2486 16.4649L86.0512 16.2018H92.7837L92.5644 16.4869C92.579 15.6243 92.4548 14.9298 92.1916 14.4035C91.943 13.8626 91.5849 13.4678 91.117 13.2193C90.6638 12.9561 90.1229 12.8246 89.4942 12.8246C88.8655 12.8246 88.31 12.9635 87.8275 13.2412C87.3451 13.519 86.965 13.9284 86.6872 14.4693C86.424 14.9956 86.2778 15.6608 86.2486 16.4649Z"/>
    <path d="M94.6471 23.0001L100.612 14.3816L95.4585 7.01313H97.9366L101.972 13H102.059L106.073 7.01313H108.551L103.441 14.3597L109.406 23.0001H106.884L102.037 15.9167H101.972L97.1251 23.0001H94.6471Z"/>
  </mask>
  <path d="M6.06343 15.5617H1.56962C1.33954 15.5617 1.13103 15.425 1.04475 15.2093C0.958466 14.9936 1.0088 14.7492 1.16698 14.591L14.5909 1.1671C14.7562 1.00173 15.0007 0.958588 15.2092 1.04487C15.4249 1.13115 15.5615 1.33966 15.5615 1.56975V6.06355C15.5615 6.21454 15.504 6.35834 15.3962 6.4662L6.46607 15.3963C6.36541 15.5041 6.21442 15.5617 6.06343 15.5617ZM2.95012 14.4184H5.83335L14.4255 5.82628V2.94305L2.95012 14.4184Z" fill="white"/>
  <path d="M14.9939 29.0001C14.8429 29.0001 14.6991 28.9425 14.5913 28.8347L1.16736 15.3964C0.944468 15.1735 0.944086 14.8139 1.16698 14.591C1.38987 14.3681 1.74976 14.3682 1.97265 14.5911L14.4187 27.0516V24.1683L5.66117 15.3964C5.43827 15.1735 5.43827 14.814 5.66117 14.5911C5.88406 14.3682 6.24356 14.3682 6.46645 14.5911L15.3894 23.5356C15.4972 23.6435 15.5547 23.7873 15.5547 23.9382V28.4321C15.5547 28.6621 15.4181 28.8706 15.2024 28.9569C15.1377 28.9857 15.0658 29.0001 14.9939 29.0001ZM28.4178 15.5618H23.924C23.773 15.5618 23.6292 15.5043 23.5213 15.3964L14.5913 6.46633C14.3684 6.24344 14.3684 5.88394 14.5913 5.66104C14.8141 5.43815 15.1737 5.43815 15.3965 5.66104L24.1541 14.4186H27.0373L14.5913 1.97253C14.3684 1.74963 14.368 1.38999 14.5909 1.1671C14.8138 0.944208 15.1737 0.944346 15.3965 1.16724L28.8204 14.5911C28.9858 14.7565 29.029 15.001 28.9427 15.2095C28.8564 15.418 28.6479 15.5618 28.4178 15.5618Z" fill="white"/>
  <path d="M14.9939 29.0001C14.8501 29.0001 14.6991 28.9425 14.5913 28.8347C14.3684 28.6118 14.3684 28.2523 14.5913 28.0295L28.0151 14.5912C28.238 14.3683 28.5975 14.3682 28.8204 14.5911C29.0433 14.814 29.0433 15.1736 28.8204 15.3965L15.3965 28.8347C15.2815 28.9426 15.1377 29.0001 14.9939 29.0001ZM14.9939 24.5063C14.8501 24.5063 14.7063 24.4488 14.5913 24.3409C14.3684 24.118 14.3684 23.7585 14.5913 23.5357L23.5142 14.5912C23.737 14.3683 24.0966 14.3683 24.3194 14.5912C24.5423 14.8141 24.5423 15.1736 24.3194 15.3965L15.3965 24.3338C15.2815 24.4488 15.1377 24.5063 14.9939 24.5063Z" fill="white"/>
  <path d="M14.9939 24.5063C14.6775 24.5063 14.4255 24.2547 14.4255 23.9384V19.7609C14.4255 19.6099 14.483 19.4661 14.5909 19.3583L19.3579 14.5913C19.4657 14.4834 19.6095 14.4259 19.7605 14.4259H23.9236C24.24 14.4259 24.4916 14.6775 24.4916 14.9939C24.4916 15.3103 24.2404 15.5618 23.924 15.5618L19.9978 15.5619L15.5687 19.991V23.9312C15.5615 24.2475 15.3103 24.5063 14.9939 24.5063Z" fill="white"/>
  <path d="M14.9939 24.5063C14.6775 24.5063 14.4255 24.2547 14.4255 23.9384L14.4256 19.9983L9.99654 15.5693H6.06356C5.7472 15.5693 5.49554 15.3176 5.49554 15.0012C5.49554 14.6849 5.7472 14.4332 6.06356 14.4332H10.2266C10.3776 14.4332 10.5214 14.4907 10.6293 14.5986L15.3963 19.3656C15.5041 19.4735 15.5617 19.6173 15.5617 19.7683V23.9457C15.5617 24.2477 15.3103 24.5063 14.9939 24.5063ZM23.9165 15.5621H19.7535C19.6025 15.5621 19.4587 15.5045 19.3508 15.3967L14.5838 10.6297C14.476 10.5218 14.4184 10.378 14.4184 10.227V6.06396C14.4184 5.74759 14.6773 5.49594 14.9865 5.49594C15.3028 5.49594 15.5545 5.74759 15.5545 6.06396V9.98974L19.9836 14.4188H23.9094C24.2257 14.4188 24.4774 14.6705 24.4774 14.9869C24.4918 15.3032 24.2329 15.5621 23.9165 15.5621Z" fill="white"/>
  <path d="M10.2266 15.5619L6.06343 15.5617C5.74707 15.5617 5.49554 15.3102 5.49554 14.9939C5.49554 14.6775 5.7472 14.4259 6.06356 14.4259H9.98935L14.4184 9.99677V6.07098C14.4184 5.75461 14.6773 5.50296 14.9865 5.50296C15.3028 5.50296 15.5545 5.75461 15.5545 6.07098V10.234C15.5545 10.385 15.497 10.5288 15.3891 10.6367L10.6221 15.4037C10.5214 15.5044 10.3776 15.5619 10.2266 15.5619Z" fill="white"/>
  <path d="M36.6985 23.0001V11.443H38.7161V23.0001H36.6985ZM36.6985 9.60087V7.01313H38.7161V9.60087H36.6985Z" fill="white"/>
  <path d="M41.309 23.0001V11.443H43.2388L43.3046 13.7895H43.4362C43.787 12.9561 44.3207 12.3275 45.0371 11.9035C45.7534 11.4795 46.5429 11.2675 47.4055 11.2675C48.0049 11.2675 48.5532 11.3553 49.0502 11.5307C49.5619 11.7061 50.0005 11.9912 50.366 12.386C50.7461 12.7807 51.0385 13.2924 51.2432 13.9211C51.4479 14.5351 51.5502 15.2807 51.5502 16.1579V23.0001H49.5327V16.5746C49.5327 15.7559 49.4304 15.076 49.2257 14.5351C49.021 13.9942 48.714 13.5994 48.3046 13.3509C47.8953 13.0877 47.3689 12.9561 46.7257 12.9561C46.0239 12.9561 45.4172 13.1243 44.9055 13.4605C44.3938 13.7968 43.999 14.25 43.7213 14.8202C43.4435 15.3758 43.3046 16.0117 43.3046 16.7281V23.0001H41.309Z" fill="white"/>
  <path d="M57.9834 23.2194C56.9893 23.2194 56.134 23.0585 55.4176 22.7369C54.7012 22.4153 54.153 21.9694 53.7729 21.3992C53.3928 20.8144 53.2027 20.1419 53.2027 19.3816H55.1983C55.2129 20.1857 55.4761 20.7778 55.9878 21.158C56.5141 21.5381 57.2013 21.7281 58.0492 21.7281C58.8826 21.7281 59.5185 21.5673 59.9571 21.2457C60.4103 20.924 60.637 20.4781 60.637 19.9079C60.637 19.4693 60.5419 19.1331 60.3519 18.8992C60.1618 18.6506 59.8621 18.4606 59.4527 18.329C59.0434 18.1828 58.5024 18.0658 57.8299 17.9781C56.8796 17.8319 56.0828 17.6418 55.4396 17.4079C54.7963 17.1594 54.3138 16.8231 53.9922 16.3992C53.6852 15.9606 53.5317 15.3831 53.5317 14.6667C53.5317 13.9795 53.7144 13.3801 54.0799 12.8684C54.46 12.3567 54.9863 11.9547 55.6589 11.6623C56.3314 11.3699 57.1135 11.2237 58.0054 11.2237C58.9264 11.2237 59.7159 11.3772 60.3738 11.6842C61.0463 11.9766 61.558 12.3933 61.9089 12.9342C62.2744 13.4752 62.4645 14.1111 62.4791 14.8421H60.4834C60.4834 14.345 60.3738 13.943 60.1545 13.636C59.9498 13.329 59.6574 13.1023 59.2773 12.9561C58.9118 12.8099 58.4805 12.7368 57.9834 12.7368C57.2086 12.7368 56.6092 12.8977 56.1852 13.2193C55.7612 13.5263 55.5492 13.943 55.5492 14.4693C55.5492 14.8641 55.6515 15.1857 55.8562 15.4342C56.0609 15.6682 56.3825 15.8582 56.8211 16.0044C57.2744 16.136 57.8519 16.2456 58.5536 16.3334C59.2115 16.4357 59.7963 16.56 60.308 16.7062C60.8197 16.8524 61.251 17.0571 61.6019 17.3202C61.9674 17.5834 62.2378 17.9123 62.4133 18.3071C62.6033 18.6872 62.6984 19.1623 62.6984 19.7325C62.6984 20.8436 62.2671 21.7062 61.4045 22.3202C60.5419 22.9197 59.4016 23.2194 57.9834 23.2194Z" fill="white"/>
  <path d="M64.493 23.0001V11.443H66.5106V23.0001H64.493ZM64.493 9.60087V7.01313H66.5106V9.60087H64.493Z" fill="white"/>
  <path d="M69.4763 23.0001V7.01313H75.836C77.3711 7.01313 78.6722 7.34939 79.7395 8.02191C80.8067 8.67981 81.6255 9.60818 82.1956 10.807C82.7658 12.0058 83.0509 13.4094 83.0509 15.0176C83.0509 16.2164 82.8901 17.3056 82.5685 18.2851C82.2468 19.2647 81.7717 20.1053 81.143 20.8071C80.529 21.5088 79.776 22.0498 78.8842 22.4299C77.9924 22.81 76.9763 23.0001 75.836 23.0001H69.4763ZM71.6035 21.136H75.5509C76.355 21.136 77.0787 21.0118 77.7219 20.7632C78.3798 20.5001 78.9427 20.1126 79.4105 19.6009C79.8784 19.0892 80.2366 18.4459 80.4851 17.6711C80.7336 16.8962 80.8579 15.9971 80.8579 14.9737C80.8579 13.5994 80.6386 12.4591 80.2 11.5526C79.7614 10.6462 79.1401 9.97367 78.336 9.53508C77.5465 9.08186 76.6181 8.85525 75.5509 8.85525H71.6035V21.136Z" fill="white"/>
  <path d="M89.56 23.1974C88.4489 23.1974 87.4986 22.9562 86.7091 22.4737C85.9196 21.9913 85.3129 21.3042 84.8889 20.4123C84.4796 19.5205 84.2749 18.4752 84.2749 17.2764C84.2749 16.0483 84.4796 14.9883 84.8889 14.0965C85.3129 13.1901 85.9123 12.4956 86.6872 12.0132C87.462 11.5161 88.3977 11.2675 89.4942 11.2675C90.693 11.2675 91.6799 11.538 92.4548 12.079C93.2296 12.6199 93.7925 13.3655 94.1434 14.3158C94.4942 15.2515 94.6258 16.3407 94.5381 17.5834H86.2266C86.2559 18.4898 86.4021 19.2427 86.6652 19.8422C86.943 20.4416 87.3305 20.8948 87.8275 21.2018C88.3246 21.4942 88.9021 21.6404 89.56 21.6404C90.3787 21.6404 91.0439 21.443 91.5556 21.0483C92.0819 20.6536 92.4182 20.1346 92.5644 19.4913H94.4723C94.37 20.2661 94.0922 20.9313 93.639 21.4869C93.2004 22.0425 92.6302 22.4664 91.9284 22.7588C91.2267 23.0512 90.4372 23.1974 89.56 23.1974ZM86.2486 16.4649L86.0512 16.2018H92.7837L92.5644 16.4869C92.579 15.6243 92.4548 14.9298 92.1916 14.4035C91.943 13.8626 91.5849 13.4678 91.117 13.2193C90.6638 12.9561 90.1229 12.8246 89.4942 12.8246C88.8655 12.8246 88.31 12.9635 87.8275 13.2412C87.3451 13.519 86.965 13.9284 86.6872 14.4693C86.424 14.9956 86.2778 15.6608 86.2486 16.4649Z" fill="white"/>
  <path d="M94.6471 23.0001L100.612 14.3816L95.4585 7.01313H97.9366L101.972 13H102.059L106.073 7.01313H108.551L103.441 14.3597L109.406 23.0001H106.884L102.037 15.9167H101.972L97.1251 23.0001H94.6471Z" fill="white"/>
  <path d="M14.9939 24.4635C14.7011 24.4635 14.4683 24.2311 14.4683 23.9384H14.3827C14.3827 24.2784 14.6539 24.5491 14.9939 24.5491V24.4635ZM1.16698 14.591L1.2275 14.6515L1.16698 14.591ZM14.5909 1.1671L14.5304 1.10658L14.5909 1.1671ZM15.2092 1.04487L15.1765 1.12396L15.1774 1.12434L15.2092 1.04487ZM15.3962 6.4662L15.4567 6.52672L15.3962 6.4662ZM6.46607 15.3963L6.40552 15.3357L6.4035 15.3379L6.46607 15.3963ZM2.95012 14.4184L2.8896 14.3579L2.74349 14.504H2.95012V14.4184ZM5.83335 14.4184V14.504H5.8688L5.89387 14.479L5.83335 14.4184ZM14.4255 5.82628L14.486 5.8868L14.5111 5.86173V5.82628H14.4255ZM14.4255 2.94305H14.5111V2.73642L14.365 2.88253L14.4255 2.94305ZM14.5913 28.8347L14.5307 28.8952L14.5913 28.8347ZM1.16736 15.3964L1.22791 15.3359L1.22788 15.3359L1.16736 15.3964ZM1.97265 14.5911L2.03321 14.5306L2.03317 14.5306L1.97265 14.5911ZM14.4187 27.0516L14.3581 27.112L14.5043 27.2584V27.0516H14.4187ZM14.4187 24.1683H14.5043V24.1329L14.4793 24.1079L14.4187 24.1683ZM5.66117 15.3964L5.72174 15.336L5.72169 15.3359L5.66117 15.3964ZM6.46645 14.5911L6.52705 14.5307L6.52698 14.5306L6.46645 14.5911ZM15.3894 23.5356L15.3288 23.596L15.3288 23.5961L15.3894 23.5356ZM15.2024 28.9569L15.1706 28.8774L15.1677 28.8787L15.2024 28.9569ZM15.3965 5.66104L15.336 5.72156L15.3965 5.66104ZM24.1541 14.4186L24.0936 14.4791L24.1186 14.5042H24.1541V14.4186ZM27.0373 14.4186V14.5042H27.2439L27.0978 14.358L27.0373 14.4186ZM14.5913 1.97253L14.6518 1.91201L14.5913 1.97253ZM15.3965 1.16724L15.4571 1.10672V1.10672L15.3965 1.16724ZM14.5913 28.0295L14.6518 28.09L14.6518 28.0899L14.5913 28.0295ZM28.0151 14.5912L27.9546 14.5307L27.9546 14.5307L28.0151 14.5912ZM28.8204 15.3965L28.7599 15.336L28.7599 15.336L28.8204 15.3965ZM15.3965 28.8347L15.4551 28.8972L15.4571 28.8952L15.3965 28.8347ZM14.5913 24.3409L14.5307 24.4015L14.5327 24.4034L14.5913 24.3409ZM14.5913 23.5357L14.6518 23.5962L14.6518 23.5961L14.5913 23.5357ZM23.5142 14.5912L23.4536 14.5307L23.4536 14.5307L23.5142 14.5912ZM24.3194 15.3965L24.2589 15.336L24.2589 15.336L24.3194 15.3965ZM15.3965 24.3338L15.4571 24.3943L15.4571 24.3942L15.3965 24.3338ZM14.4255 23.9384H14.3399L14.5111 23.9384L14.4255 23.9384ZM14.5909 19.3583L14.5303 19.2978L14.5909 19.3583ZM19.3579 14.5913L19.4184 14.6518L19.3579 14.5913ZM19.9978 15.5619L19.9978 15.4763L19.9624 15.4763L19.9373 15.5014L19.9978 15.5619ZM15.5687 19.991L15.5082 19.9305L15.4831 19.9556V19.991H15.5687ZM15.5687 23.9312L15.6543 23.9331V23.9312H15.5687ZM14.4256 19.9983L14.5112 19.9984L14.5112 19.9629L14.4862 19.9378L14.4256 19.9983ZM9.99654 15.5693L10.0571 15.5087L10.032 15.4837H9.99654V15.5693ZM10.6293 14.5986L10.6898 14.5381L10.6293 14.5986ZM15.3963 19.3656L15.3358 19.4261L15.3963 19.3656ZM19.3508 15.3967L19.4114 15.3362L19.3508 15.3967ZM14.5838 10.6297L14.5233 10.6902L14.5838 10.6297ZM15.5545 9.98974H15.4689V10.0252L15.494 10.0503L15.5545 9.98974ZM19.9836 14.4188L19.923 14.4794L19.9481 14.5044H19.9836V14.4188ZM24.4774 14.9869H24.3917L24.3919 14.9907L24.4774 14.9869ZM10.2266 15.5619L10.2266 15.6475H10.2266V15.5619ZM9.98935 14.4259V14.5114H10.0248L10.0499 14.4864L9.98935 14.4259ZM14.4184 9.99677L14.479 10.0573L14.504 10.0322V9.99677H14.4184ZM15.3891 10.6367L15.4496 10.6972L15.3891 10.6367ZM10.6221 15.4037L10.5616 15.3432L10.6221 15.4037ZM36.6985 23.0001H36.6129V23.0857H36.6985V23.0001ZM36.6985 11.443V11.3574H36.6129V11.443H36.6985ZM38.7161 11.443H38.8017V11.3574H38.7161V11.443ZM38.7161 23.0001V23.0857H38.8017V23.0001H38.7161ZM36.6985 9.60087H36.6129V9.68645H36.6985V9.60087ZM36.6985 7.01313V6.92754H36.6129V7.01313H36.6985ZM38.7161 7.01313H38.8017V6.92754H38.7161V7.01313ZM38.7161 9.60087V9.68645H38.8017V9.60087H38.7161ZM41.309 23.0001H41.2234V23.0857H41.309V23.0001ZM41.309 11.443V11.3574H41.2234V11.443H41.309ZM43.2388 11.443L43.3243 11.4406L43.322 11.3574H43.2388V11.443ZM43.3046 13.7895L43.219 13.7919L43.2214 13.8751H43.3046V13.7895ZM43.4362 13.7895V13.8751H43.493L43.515 13.8227L43.4362 13.7895ZM45.0371 11.9035L44.9935 11.8299L45.0371 11.9035ZM49.0502 11.5307L49.0217 11.6114L49.0225 11.6117L49.0502 11.5307ZM50.366 12.386L50.3032 12.4441L50.3044 12.4453L50.366 12.386ZM51.2432 13.9211L51.1618 13.9476L51.162 13.9481L51.2432 13.9211ZM51.5502 23.0001V23.0857H51.6358V23.0001H51.5502ZM49.5327 23.0001H49.4471V23.0857H49.5327V23.0001ZM48.3046 13.3509L48.2583 13.4229L48.2602 13.424L48.3046 13.3509ZM43.7213 14.8202L43.7978 14.8585L43.7982 14.8577L43.7213 14.8202ZM43.3046 23.0001V23.0857H43.3902V23.0001H43.3046ZM55.4176 22.7369L55.4527 22.6588L55.4176 22.7369ZM53.7729 21.3992L53.7011 21.4458L53.7017 21.4467L53.7729 21.3992ZM53.2027 19.3816V19.296H53.1171V19.3816H53.2027ZM55.1983 19.3816L55.2839 19.3801L55.2824 19.296H55.1983V19.3816ZM55.9878 21.158L55.9368 21.2267L55.9377 21.2273L55.9878 21.158ZM59.9571 21.2457L59.9076 21.1759L59.9065 21.1767L59.9571 21.2457ZM60.3519 18.8992L60.2839 18.9512L60.2854 18.9531L60.3519 18.8992ZM59.4527 18.329L59.4239 18.4096L59.4265 18.4105L59.4527 18.329ZM57.8299 17.9781L57.8169 18.0627L57.8189 18.063L57.8299 17.9781ZM55.4396 17.4079L55.4087 17.4878L55.4103 17.4884L55.4396 17.4079ZM53.9922 16.3992L53.922 16.4483L53.924 16.4509L53.9922 16.3992ZM54.0799 12.8684L54.0112 12.8174L54.0103 12.8187L54.0799 12.8684ZM55.6589 11.6623L55.6247 11.5838L55.6589 11.6623ZM60.3738 11.6842L60.3376 11.7618L60.3397 11.7627L60.3738 11.6842ZM61.9089 12.9342L61.8371 12.9808L61.838 12.9821L61.9089 12.9342ZM62.4791 14.8421V14.9277H62.5664L62.5646 14.8404L62.4791 14.8421ZM60.4834 14.8421H60.3979V14.9277H60.4834V14.8421ZM60.1545 13.636L60.0832 13.6835L60.0849 13.6857L60.1545 13.636ZM59.2773 12.9561L59.2455 13.0356L59.2466 13.036L59.2773 12.9561ZM56.1852 13.2193L56.2354 13.2886L56.2369 13.2875L56.1852 13.2193ZM55.8562 15.4342L55.7901 15.4887L55.7918 15.4906L55.8562 15.4342ZM56.8211 16.0044L56.7941 16.0857L56.7973 16.0866L56.8211 16.0044ZM58.5536 16.3334L58.5668 16.2488L58.5642 16.2484L58.5536 16.3334ZM60.308 16.7062L60.2845 16.7885L60.308 16.7062ZM61.6019 17.3202L61.5505 17.3887L61.5519 17.3897L61.6019 17.3202ZM62.4133 18.3071L62.335 18.3419L62.3367 18.3453L62.4133 18.3071ZM61.4045 22.3202L61.4534 22.3905L61.4541 22.39L61.4045 22.3202ZM64.493 23.0001H64.4074V23.0857H64.493V23.0001ZM64.493 11.443V11.3574H64.4074V11.443H64.493ZM66.5106 11.443H66.5962V11.3574H66.5106V11.443ZM66.5106 23.0001V23.0857H66.5962V23.0001H66.5106ZM64.493 9.60087H64.4074V9.68645H64.493V9.60087ZM64.493 7.01313V6.92754H64.4074V7.01313H64.493ZM66.5106 7.01313H66.5962V6.92754H66.5106V7.01313ZM66.5106 9.60087V9.68645H66.5962V9.60087H66.5106ZM69.4763 23.0001H69.3907V23.0857H69.4763V23.0001ZM69.4763 7.01313V6.92754H69.3907V7.01313H69.4763ZM79.7395 8.02191L79.6939 8.09432L79.6946 8.09477L79.7395 8.02191ZM82.1956 10.807L82.1183 10.8438L82.1956 10.807ZM81.143 20.8071L81.0793 20.75L81.0786 20.7507L81.143 20.8071ZM78.8842 22.4299L78.9178 22.5086L78.8842 22.4299ZM71.6035 21.136H71.5179V21.2216H71.6035V21.136ZM77.7219 20.7632L77.7528 20.8431L77.7537 20.8427L77.7219 20.7632ZM79.4105 19.6009L79.4737 19.6587L79.4105 19.6009ZM80.4851 17.6711L80.5666 17.6972L80.4851 17.6711ZM80.2 11.5526L80.2771 11.5154L80.2 11.5526ZM78.336 9.53508L78.2934 9.60932L78.295 9.61021L78.336 9.53508ZM71.6035 8.85525V8.76966H71.5179V8.85525H71.6035ZM86.7091 22.4737L86.6645 22.5468L86.7091 22.4737ZM84.8889 20.4123L84.8111 20.448L84.8116 20.4491L84.8889 20.4123ZM84.8889 14.0965L84.8114 14.0602L84.8111 14.0608L84.8889 14.0965ZM86.6872 12.0132L86.7324 12.0858L86.7334 12.0852L86.6872 12.0132ZM94.1434 14.3158L94.0631 14.3455L94.0632 14.3459L94.1434 14.3158ZM94.5381 17.5834V17.669H94.6179L94.6235 17.5894L94.5381 17.5834ZM86.2266 17.5834V17.4978H86.1383L86.1411 17.5861L86.2266 17.5834ZM86.6652 19.8422L86.5869 19.8766L86.5876 19.8781L86.6652 19.8422ZM87.8275 21.2018L87.7825 21.2746L87.7841 21.2756L87.8275 21.2018ZM91.5556 21.0483L91.5043 20.9798L91.5033 20.9805L91.5556 21.0483ZM92.5644 19.4913V19.4057H92.4961L92.4809 19.4723L92.5644 19.4913ZM94.4723 19.4913L94.5572 19.5025L94.5699 19.4057H94.4723V19.4913ZM93.639 21.4869L93.5726 21.4328L93.5718 21.4339L93.639 21.4869ZM86.2486 16.4649L86.1801 16.5163L86.3253 16.7099L86.3341 16.4681L86.2486 16.4649ZM86.0512 16.2018V16.1162H85.88L85.9827 16.2531L86.0512 16.2018ZM92.7837 16.2018L92.8515 16.254L92.9575 16.1162H92.7837V16.2018ZM92.5644 16.4869L92.4788 16.4854L92.4744 16.7442L92.6322 16.5391L92.5644 16.4869ZM92.1916 14.4035L92.1138 14.4393L92.115 14.4418L92.1916 14.4035ZM91.117 13.2193L91.074 13.2934L91.0769 13.2949L91.117 13.2193ZM87.8275 13.2412L87.7848 13.1671L87.8275 13.2412ZM86.6872 14.4693L86.611 14.4302L86.6106 14.431L86.6872 14.4693ZM94.6471 23.0001L94.5767 22.9514L94.4837 23.0857H94.6471V23.0001ZM100.612 14.3816L100.682 14.4303L100.716 14.3813L100.682 14.3325L100.612 14.3816ZM95.4585 7.01313V6.92754H95.2942L95.3883 7.06218L95.4585 7.01313ZM97.9366 7.01313L98.0075 6.9653L97.9821 6.92754H97.9366V7.01313ZM101.972 13L101.901 13.0478L101.926 13.0856H101.972V13ZM102.059 13V13.0856H102.105L102.13 13.0477L102.059 13ZM106.073 7.01313V6.92754H106.027L106.001 6.96548L106.073 7.01313ZM108.551 7.01313L108.621 7.062L108.714 6.92754H108.551V7.01313ZM103.441 14.3597L103.371 14.3108L103.337 14.3595L103.371 14.4083L103.441 14.3597ZM109.406 23.0001V23.0857H109.569L109.476 22.9514L109.406 23.0001ZM106.884 23.0001L106.813 23.0484L106.839 23.0857H106.884V23.0001ZM102.037 15.9167L102.108 15.8684L102.083 15.8311H102.037V15.9167ZM101.972 15.9167V15.8311H101.927L101.901 15.8684L101.972 15.9167ZM97.1251 23.0001V23.0857H97.1703L97.1958 23.0484L97.1251 23.0001ZM6.06343 15.4761H1.56962V15.6472H6.06343V15.4761ZM1.56962 15.4761C1.37355 15.4761 1.19713 15.3599 1.12421 15.1776L0.965281 15.2411C1.06492 15.4902 1.30553 15.6472 1.56962 15.6472V15.4761ZM1.12421 15.1776C1.05039 14.993 1.09401 14.785 1.2275 14.6515L1.10646 14.5305C0.923581 14.7134 0.866542 14.9943 0.965281 15.2411L1.12421 15.1776ZM1.2275 14.6515L14.6514 1.22762L14.5304 1.10658L1.10646 14.5305L1.2275 14.6515ZM14.6514 1.22762C14.7916 1.08741 14.999 1.05053 15.1765 1.12395L15.2419 0.965784C15.0024 0.866649 14.7209 0.916048 14.5304 1.10658L14.6514 1.22762ZM15.1774 1.12434C15.3597 1.19726 15.4759 1.37367 15.4759 1.56975H15.6471C15.6471 1.30565 15.4901 1.06504 15.241 0.965403L15.1774 1.12434ZM15.4759 1.56975V6.06355H15.6471V1.56975H15.4759ZM15.4759 6.06355C15.4759 6.19252 15.427 6.31434 15.3356 6.40567L15.4567 6.52672C15.5811 6.40234 15.6471 6.23657 15.6471 6.06355H15.4759ZM15.3356 6.40567L6.40555 15.3358L6.52659 15.4568L15.4567 6.52672L15.3356 6.40567ZM6.4035 15.3379C6.32127 15.426 6.19419 15.4761 6.06343 15.4761V15.6472C6.23466 15.6472 6.40956 15.5823 6.52864 15.4547L6.4035 15.3379ZM2.95012 14.504H5.83335V14.3328H2.95012V14.504ZM5.89387 14.479L14.486 5.8868L14.365 5.76576L5.77283 14.3579L5.89387 14.479ZM14.5111 5.82628V2.94305H14.3399V5.82628H14.5111ZM14.365 2.88253L2.8896 14.3579L3.01064 14.479L14.486 3.00357L14.365 2.88253ZM14.9939 28.9145C14.8649 28.9145 14.7431 28.8655 14.6518 28.7742L14.5307 28.8952C14.6551 29.0196 14.8209 29.0857 14.9939 29.0857V28.9145ZM14.6518 28.7742L1.22791 15.3359L1.10681 15.4569L14.5307 28.8952L14.6518 28.7742ZM1.22788 15.3359C1.03834 15.1464 1.03811 14.8409 1.2275 14.6515L1.10646 14.5305C0.850067 14.7869 0.850598 15.2007 1.10684 15.4569L1.22788 15.3359ZM1.2275 14.6515C1.41694 14.4621 1.72263 14.4622 1.91213 14.6517L2.03317 14.5306C1.77688 14.2743 1.3628 14.2741 1.10646 14.5305L1.2275 14.6515ZM1.9121 14.6516L14.3581 27.112L14.4792 26.9911L2.03321 14.5306L1.9121 14.6516ZM14.5043 27.0516V24.1683H14.3331V27.0516H14.5043ZM14.4793 24.1079L5.72174 15.336L5.6006 15.4569L14.3581 24.2288L14.4793 24.1079ZM5.72169 15.3359C5.53222 15.1464 5.53222 14.8411 5.72169 14.6517L5.60065 14.5306C5.34433 14.7869 5.34433 15.2006 5.60065 15.4569L5.72169 15.3359ZM5.72169 14.6517C5.91115 14.4622 6.21647 14.4622 6.40593 14.6517L6.52698 14.5306C6.27066 14.2743 5.85696 14.2743 5.60065 14.5306L5.72169 14.6517ZM6.40586 14.6516L15.3288 23.596L15.4499 23.4752L6.52705 14.5307L6.40586 14.6516ZM15.3288 23.5961C15.4202 23.6875 15.4691 23.8093 15.4691 23.9382H15.6403C15.6403 23.7652 15.5742 23.5995 15.4499 23.4751L15.3288 23.5961ZM15.4691 23.9382V28.4321H15.6403V23.9382H15.4691ZM15.4691 28.4321C15.4691 28.6281 15.3529 28.8045 15.1706 28.8775L15.2342 29.0364C15.4833 28.9368 15.6403 28.6961 15.6403 28.4321H15.4691ZM15.1677 28.8787C15.1146 28.9023 15.0546 28.9145 14.9939 28.9145V29.0857C15.077 29.0857 15.1608 29.0691 15.2372 29.0351L15.1677 28.8787ZM28.4178 15.4762H23.924V15.6474H28.4178V15.4762ZM23.924 15.4762C23.795 15.4762 23.6732 15.4272 23.5819 15.3359L23.4608 15.4569C23.5852 15.5813 23.751 15.6474 23.924 15.6474V15.4762ZM23.5819 15.3359L14.6518 6.40581L14.5307 6.52685L23.4608 15.4569L23.5819 15.3359ZM14.6518 6.40581C14.4623 6.21634 14.4623 5.91103 14.6518 5.72156L14.5307 5.60052C14.2744 5.85684 14.2744 6.27054 14.5307 6.52685L14.6518 6.40581ZM14.6518 5.72156C14.8412 5.53209 15.1466 5.53209 15.336 5.72156L15.4571 5.60052C15.2007 5.34421 14.7871 5.34421 14.5307 5.60052L14.6518 5.72156ZM15.336 5.72156L24.0936 14.4791L24.2146 14.358L15.4571 5.60052L15.336 5.72156ZM24.1541 14.5042H27.0373V14.333H24.1541V14.5042ZM27.0978 14.358L14.6518 1.91201L14.5307 2.03305L26.9768 14.4791L27.0978 14.358ZM14.6518 1.91201C14.4622 1.72246 14.462 1.41701 14.6514 1.22762L14.5304 1.10658C14.274 1.36297 14.2745 1.77681 14.5307 2.03305L14.6518 1.91201ZM14.6514 1.22762C14.8408 1.03818 15.1465 1.03826 15.336 1.22776L15.4571 1.10672C15.2008 0.850428 14.7867 0.850237 14.5304 1.10658L14.6514 1.22762ZM15.336 1.22776L28.7599 14.6517L28.881 14.5306L15.4571 1.10672L15.336 1.22776ZM28.7599 14.6517C28.9001 14.7919 28.937 14.9993 28.8636 15.1768L29.0218 15.2422C29.1209 15.0026 29.0715 14.7211 28.881 14.5306L28.7599 14.6517ZM28.8636 15.1768C28.7903 15.354 28.6125 15.4762 28.4178 15.4762V15.6474C28.6833 15.6474 28.9225 15.482 29.0218 15.2422L28.8636 15.1768ZM14.9939 28.9145C14.8716 28.9145 14.7427 28.8651 14.6518 28.7742L14.5307 28.8952C14.6555 29.02 14.8286 29.0857 14.9939 29.0857V28.9145ZM14.6518 28.7742C14.4623 28.5847 14.4623 28.2794 14.6518 28.09L14.5307 27.9689C14.2744 28.2253 14.2744 28.6389 14.5307 28.8952L14.6518 28.7742ZM14.6518 28.0899L28.0757 14.6517L27.9546 14.5307L14.5307 27.969L14.6518 28.0899ZM28.0757 14.6517C28.2651 14.4622 28.5705 14.4622 28.7599 14.6517L28.881 14.5306C28.6246 14.2743 28.2109 14.2744 27.9546 14.5307L28.0757 14.6517ZM28.7599 14.6517C28.9494 14.8411 28.9494 15.1465 28.7599 15.336L28.881 15.457C29.1373 15.2007 29.1373 14.7869 28.881 14.5306L28.7599 14.6517ZM28.7599 15.336L15.336 28.7743L15.4571 28.8952L28.881 15.457L28.7599 15.336ZM15.338 28.7723C15.2379 28.8662 15.1147 28.9145 14.9939 28.9145V29.0857C15.1607 29.0857 15.3251 29.019 15.4551 28.8972L15.338 28.7723ZM14.9939 24.4207C14.8731 24.4207 14.7499 24.3724 14.6498 24.2785L14.5327 24.4034C14.6626 24.5252 14.8271 24.5919 14.9939 24.5919V24.4207ZM14.6518 24.2804C14.4623 24.091 14.4623 23.7856 14.6518 23.5962L14.5307 23.4751C14.2744 23.7314 14.2744 24.1451 14.5307 24.4015L14.6518 24.2804ZM14.6518 23.5961L23.5747 14.6516L23.4536 14.5307L14.5307 23.4752L14.6518 23.5961ZM23.5747 14.6517C23.7641 14.4622 24.0695 14.4622 24.2589 14.6517L24.38 14.5307C24.1236 14.2743 23.7099 14.2743 23.4536 14.5307L23.5747 14.6517ZM24.2589 14.6517C24.4484 14.8412 24.4484 15.1465 24.2589 15.336L24.38 15.457C24.6363 15.2007 24.6363 14.787 24.38 14.5307L24.2589 14.6517ZM24.2589 15.336L15.336 24.2733L15.4571 24.3942L24.38 15.4569L24.2589 15.336ZM15.336 24.2732C15.2365 24.3727 15.1143 24.4207 14.9939 24.4207V24.5919C15.1611 24.5919 15.3265 24.5249 15.4571 24.3943L15.336 24.2732ZM14.5111 23.9384V19.7609H14.3399V23.9384H14.5111ZM14.5111 19.7609C14.5111 19.632 14.5601 19.5101 14.6514 19.4188L14.5303 19.2978C14.406 19.4221 14.3399 19.5879 14.3399 19.7609H14.5111ZM14.6514 19.4188L19.4184 14.6518L19.2974 14.5307L14.5303 19.2978L14.6514 19.4188ZM19.4184 14.6518C19.5097 14.5604 19.6316 14.5115 19.7605 14.5115V14.3403C19.5875 14.3403 19.4217 14.4064 19.2974 14.5307L19.4184 14.6518ZM19.7605 14.5115H23.9236V14.3403H19.7605V14.5115ZM23.9236 14.5115C24.1927 14.5115 24.406 14.7248 24.406 14.9939H24.5772C24.5772 14.6303 24.2872 14.3403 23.9236 14.3403V14.5115ZM24.406 14.9939C24.406 15.263 24.193 15.4762 23.924 15.4762V15.6474C24.2877 15.6474 24.5772 15.3575 24.5772 14.9939H24.406ZM23.924 15.4762L19.9978 15.4763L19.9978 15.6475L23.924 15.6474L23.924 15.4762ZM19.9373 15.5014L15.5082 19.9305L15.6292 20.0515L20.0583 15.6224L19.9373 15.5014ZM15.4831 19.991V23.9312H15.6543V19.991H15.4831ZM15.4831 23.9292C15.477 24.2017 15.2612 24.4207 14.9939 24.4207V24.5919C15.3593 24.5919 15.6461 24.2934 15.6543 23.9331L15.4831 23.9292ZM14.5111 23.9384L14.5112 19.9984L14.34 19.9983L14.3399 23.9384L14.5111 23.9384ZM14.4862 19.9378L10.0571 15.5087L9.93602 15.6298L14.3651 20.0589L14.4862 19.9378ZM9.99654 15.4837H6.06356V15.6548H9.99654V15.4837ZM6.06356 15.4837C5.79447 15.4837 5.58113 15.2703 5.58113 15.0012H5.40996C5.40996 15.3649 5.69993 15.6548 6.06356 15.6548V15.4837ZM5.58113 15.0012C5.58113 14.7321 5.79447 14.5188 6.06356 14.5188V14.3476C5.69993 14.3476 5.40996 14.6376 5.40996 15.0012H5.58113ZM6.06356 14.5188H10.2266V14.3476H6.06356V14.5188ZM10.2266 14.5188C10.3556 14.5188 10.4774 14.5678 10.5687 14.6591L10.6898 14.5381C10.5654 14.4137 10.3996 14.3476 10.2266 14.3476V14.5188ZM10.5687 14.6591L15.3358 19.4261L15.4568 19.3051L10.6898 14.5381L10.5687 14.6591ZM15.3358 19.4261C15.4271 19.5175 15.4761 19.6393 15.4761 19.7683H15.6473C15.6473 19.5952 15.5812 19.4295 15.4568 19.3051L15.3358 19.4261ZM15.4761 19.7683V23.9457H15.6473V19.7683H15.4761ZM15.4761 23.9457C15.4761 24.2004 15.263 24.4207 14.9939 24.4207V24.5919C15.3575 24.5919 15.6473 24.295 15.6473 23.9457H15.4761ZM23.9165 15.4765H19.7535V15.6477H23.9165V15.4765ZM19.7535 15.4765C19.6245 15.4765 19.5027 15.4275 19.4114 15.3362L19.2903 15.4572C19.4147 15.5816 19.5805 15.6477 19.7535 15.6477V15.4765ZM19.4114 15.3362L14.6443 10.5691L14.5233 10.6902L19.2903 15.4572L19.4114 15.3362ZM14.6443 10.5691C14.553 10.4778 14.504 10.356 14.504 10.227H14.3329C14.3329 10.4 14.3989 10.5658 14.5233 10.6902L14.6443 10.5691ZM14.504 10.227V6.06396H14.3329V10.227H14.504ZM14.504 6.06396C14.504 5.79556 14.7238 5.58153 14.9865 5.58153V5.41035C14.6307 5.41035 14.3329 5.69962 14.3329 6.06396H14.504ZM14.9865 5.58153C15.2556 5.58153 15.4689 5.79486 15.4689 6.06396H15.6401C15.6401 5.70032 15.3501 5.41035 14.9865 5.41035V5.58153ZM15.4689 6.06396V9.98974H15.6401V6.06396H15.4689ZM15.494 10.0503L19.923 14.4794L20.0441 14.3583L15.615 9.92922L15.494 10.0503ZM19.9836 14.5044H23.9094V14.3333H19.9836V14.5044ZM23.9094 14.5044C24.1785 14.5044 24.3918 14.7178 24.3918 14.9869H24.563C24.563 14.6232 24.273 14.3333 23.9094 14.3333V14.5044ZM24.3919 14.9907C24.4039 15.2561 24.1864 15.4765 23.9165 15.4765V15.6477C24.2794 15.6477 24.5796 15.3504 24.5629 14.983L24.3919 14.9907ZM10.2266 15.4763L6.06343 15.4761L6.06342 15.6472L10.2266 15.6475L10.2266 15.4763ZM6.06343 15.4761C5.79431 15.4761 5.58113 15.2629 5.58113 14.9939H5.40996C5.40996 15.3575 5.69982 15.6472 6.06343 15.6472V15.4761ZM5.58113 14.9939C5.58113 14.7248 5.79447 14.5114 6.06356 14.5114V14.3403C5.69993 14.3403 5.40996 14.6302 5.40996 14.9939H5.58113ZM6.06356 14.5114H9.98935V14.3403H6.06356V14.5114ZM10.0499 14.4864L14.479 10.0573L14.3579 9.93625L9.92883 14.3653L10.0499 14.4864ZM14.504 9.99677V6.07098H14.3329V9.99677H14.504ZM14.504 6.07098C14.504 5.80259 14.7239 5.58855 14.9865 5.58855V5.41737C14.6307 5.41737 14.3329 5.70664 14.3329 6.07098H14.504ZM14.9865 5.58855C15.2556 5.58855 15.4689 5.80188 15.4689 6.07098H15.6401C15.6401 5.70735 15.3501 5.41737 14.9865 5.41737V5.58855ZM15.4689 6.07098V10.234H15.6401V6.07098H15.4689ZM15.4689 10.234C15.4689 10.363 15.4199 10.4848 15.3286 10.5762L15.4496 10.6972C15.574 10.5728 15.6401 10.4071 15.6401 10.234H15.4689ZM15.3286 10.5762L10.5616 15.3432L10.6826 15.4642L15.4496 10.6972L15.3286 10.5762ZM10.5616 15.3432C10.478 15.4268 10.3564 15.4763 10.2266 15.4763V15.6475C10.3988 15.6475 10.5648 15.582 10.6826 15.4642L10.5616 15.3432ZM36.7841 23.0001V11.443H36.6129V23.0001H36.7841ZM36.6985 11.5286H38.7161V11.3574H36.6985V11.5286ZM38.6305 11.443V23.0001H38.8017V11.443H38.6305ZM38.7161 22.9145H36.6985V23.0857H38.7161V22.9145ZM36.7841 9.60087V7.01313H36.6129V9.60087H36.7841ZM36.6985 7.09872H38.7161V6.92754H36.6985V7.09872ZM38.6305 7.01313V9.60087H38.8017V7.01313H38.6305ZM38.7161 9.51528H36.6985V9.68645H38.7161V9.51528ZM41.3945 23.0001V11.443H41.2234V23.0001H41.3945ZM41.309 11.5286H43.2388V11.3574H41.309V11.5286ZM43.1532 11.4454L43.219 13.7919L43.3901 13.7871L43.3243 11.4406L43.1532 11.4454ZM43.3046 13.8751H43.4362V13.7039H43.3046V13.8751ZM43.515 13.8227C43.8595 13.0047 44.3814 12.391 45.0806 11.9772L44.9935 11.8299C44.2599 12.264 43.7146 12.9076 43.3573 13.7563L43.515 13.8227ZM45.0806 11.9772C45.7833 11.5613 46.5577 11.3531 47.4055 11.3531V11.182C46.5282 11.182 45.7235 11.3978 44.9935 11.8299L45.0806 11.9772ZM47.4055 11.3531C47.9965 11.3531 48.535 11.4396 49.0217 11.6114L49.0787 11.45C48.5713 11.2709 48.0133 11.182 47.4055 11.182V11.3531ZM49.0225 11.6117C49.5209 11.7825 49.9474 12.0598 50.3032 12.4441L50.4288 12.3278C50.0537 11.9226 49.603 11.6297 49.078 11.4497L49.0225 11.6117ZM50.3044 12.4453C50.6739 12.829 50.9604 13.3287 51.1618 13.9476L51.3246 13.8946C51.1167 13.2561 50.8184 12.7324 50.4277 12.3266L50.3044 12.4453ZM51.162 13.9481C51.363 14.551 51.4647 15.2869 51.4647 16.1579H51.6358C51.6358 15.2746 51.5328 14.5192 51.3244 13.894L51.162 13.9481ZM51.4647 16.1579V23.0001H51.6358V16.1579H51.4647ZM51.5502 22.9145H49.5327V23.0857H51.5502V22.9145ZM49.6183 23.0001V16.5746H49.4471V23.0001H49.6183ZM49.6183 16.5746C49.6183 15.7495 49.5152 15.0586 49.3057 14.5048L49.1456 14.5654C49.3455 15.0935 49.4471 15.7623 49.4471 16.5746H49.6183ZM49.3057 14.5048C49.0957 13.9498 48.7779 13.5381 48.349 13.2777L48.2602 13.424C48.65 13.6607 48.9463 14.0385 49.1456 14.5654L49.3057 14.5048ZM48.3509 13.2789C47.9239 13.0044 47.3802 12.8706 46.7257 12.8706V13.0417C47.3577 13.0417 47.8666 13.171 48.2583 13.4229L48.3509 13.2789ZM46.7257 12.8706C46.0097 12.8706 45.3861 13.0423 44.8585 13.389L44.9525 13.5321C45.4483 13.2063 46.0381 13.0417 46.7257 13.0417V12.8706ZM44.8585 13.389C44.3334 13.734 43.9286 14.1992 43.6443 14.7827L43.7982 14.8577C44.0695 14.3008 44.4541 13.8596 44.9525 13.5321L44.8585 13.389ZM43.6447 14.7819C43.3601 15.3511 43.219 16.0005 43.219 16.7281H43.3902C43.3902 16.023 43.5268 15.4004 43.7978 14.8585L43.6447 14.7819ZM43.219 16.7281V23.0001H43.3902V16.7281H43.219ZM43.3046 22.9145H41.309V23.0857H43.3046V22.9145ZM57.9834 23.1338C56.9983 23.1338 56.1555 22.9744 55.4527 22.6588L55.3826 22.815C56.1125 23.1427 56.9803 23.305 57.9834 23.305V23.1338ZM55.4527 22.6588C54.7488 22.3428 54.214 21.9066 53.8441 21.3517L53.7017 21.4467C54.092 22.0321 54.6537 22.4877 55.3826 22.815L55.4527 22.6588ZM53.8446 21.3525C53.4744 20.7829 53.2883 20.1269 53.2883 19.3816H53.1171C53.1171 20.1569 53.3112 20.8459 53.7011 21.4458L53.8446 21.3525ZM53.2027 19.4672H55.1983V19.296H53.2027V19.4672ZM55.1128 19.3832C55.1277 20.2062 55.3983 20.8267 55.9368 21.2267L56.0388 21.0892C55.5539 20.729 55.2982 20.1653 55.2839 19.3801L55.1128 19.3832ZM55.9377 21.2273C56.4825 21.6208 57.1888 21.8137 58.0492 21.8137V21.6425C57.2138 21.6425 56.5458 21.4553 56.0379 21.0886L55.9377 21.2273ZM58.0492 21.8137C58.8917 21.8137 59.5485 21.6515 60.0077 21.3147L59.9065 21.1767C59.4885 21.4832 58.8735 21.6425 58.0492 21.6425V21.8137ZM60.0067 21.3155C60.4832 20.9773 60.7225 20.505 60.7225 19.9079H60.5514C60.5514 20.4512 60.3375 20.8708 59.9076 21.1759L60.0067 21.3155ZM60.7225 19.9079C60.7225 19.4584 60.6253 19.1 60.4183 18.8452L60.2854 18.9531C60.4586 19.1662 60.5514 19.4803 60.5514 19.9079H60.7225ZM60.4199 18.8472C60.2159 18.5805 59.8988 18.3825 59.4789 18.2475L59.4265 18.4105C59.8254 18.5387 60.1077 18.7208 60.2839 18.9512L60.4199 18.8472ZM59.4815 18.2484C59.0642 18.0993 58.5166 17.9814 57.841 17.8932L57.8189 18.063C58.4883 18.1503 59.0226 18.2662 59.424 18.4096L59.4815 18.2484ZM57.8429 17.8935C56.8961 17.7479 56.1052 17.5589 55.4688 17.3275L55.4103 17.4884C56.0605 17.7248 56.8631 17.916 57.8169 18.0627L57.8429 17.8935ZM55.4704 17.3281C54.8376 17.0836 54.37 16.7555 54.0604 16.3474L53.924 16.4509C54.2577 16.8907 54.7549 17.2352 55.4087 17.4878L55.4704 17.3281ZM54.0623 16.3501C53.7682 15.93 53.6172 15.3713 53.6172 14.6667H53.4461C53.4461 15.3948 53.6021 15.9911 53.9221 16.4482L54.0623 16.3501ZM53.6172 14.6667C53.6172 13.9956 53.7954 13.414 54.1495 12.9182L54.0103 12.8187C53.6334 13.3463 53.4461 13.9634 53.4461 14.6667H53.6172ZM54.1486 12.9195C54.5185 12.4215 55.0321 12.0281 55.693 11.7408L55.6247 11.5838C54.9406 11.8813 54.4015 12.292 54.0112 12.8174L54.1486 12.9195ZM55.693 11.7408C56.3527 11.454 57.1228 11.3093 58.0054 11.3093V11.1381C57.1043 11.1381 56.3101 11.2858 55.6247 11.5838L55.693 11.7408ZM58.0054 11.3093C58.9172 11.3093 59.6937 11.4613 60.3376 11.7618L60.41 11.6067C59.7381 11.2931 58.9357 11.1381 58.0054 11.1381V11.3093ZM60.3397 11.7627C60.999 12.0493 61.4966 12.4558 61.8371 12.9808L61.9807 12.8876C61.6195 12.3307 61.0937 11.9039 60.4079 11.6057L60.3397 11.7627ZM61.838 12.9821C62.1932 13.5078 62.3792 14.1273 62.3935 14.8438L62.5646 14.8404C62.5497 14.095 62.3556 13.4425 61.9798 12.8863L61.838 12.9821ZM62.4791 14.7565H60.4834V14.9277H62.4791V14.7565ZM60.569 14.8421C60.569 14.3328 60.4567 13.9117 60.2241 13.5862L60.0849 13.6857C60.2909 13.9742 60.3979 14.3573 60.3979 14.8421H60.569ZM60.2257 13.5885C60.0102 13.2652 59.7029 13.0281 59.308 12.8763L59.2466 13.036C59.612 13.1766 59.8894 13.3927 60.0833 13.6835L60.2257 13.5885ZM59.3091 12.8767C58.9312 12.7255 58.4887 12.6513 57.9834 12.6513V12.8224C58.4724 12.8224 58.8924 12.8944 59.2455 13.0356L59.3091 12.8767ZM57.9834 12.6513C57.1981 12.6513 56.5777 12.8141 56.1334 13.1511L56.2369 13.2875C56.6406 12.9813 57.2191 12.8224 57.9834 12.8224V12.6513ZM56.135 13.15C55.6886 13.4732 55.4636 13.9157 55.4636 14.4693H55.6348C55.6348 13.9703 55.8338 13.5794 56.2354 13.2886L56.135 13.15ZM55.4636 14.4693C55.4636 14.8793 55.5702 15.2215 55.7902 15.4886L55.9223 15.3798C55.7329 15.1498 55.6348 14.8488 55.6348 14.4693H55.4636ZM55.7918 15.4906C56.0102 15.7402 56.3476 15.9368 56.7941 16.0856L56.8482 15.9232C56.4175 15.7796 56.1116 15.5961 55.9206 15.3779L55.7918 15.4906ZM56.7973 16.0866C57.2564 16.2199 57.8387 16.3303 58.543 16.4183L58.5642 16.2484C57.865 16.161 57.2923 16.0521 56.845 15.9222L56.7973 16.0866ZM58.5405 16.4179C59.1957 16.5199 59.7769 16.6434 60.2845 16.7885L60.3315 16.6239C59.8157 16.4765 59.2273 16.3515 58.5668 16.2488L58.5405 16.4179ZM60.2845 16.7885C60.7882 16.9324 61.2096 17.133 61.5505 17.3887L61.6532 17.2517C61.2924 16.9811 60.8512 16.7724 60.3315 16.6239L60.2845 16.7885ZM61.5519 17.3897C61.9056 17.6444 62.1661 17.9615 62.3351 18.3418L62.4915 18.2723C62.3096 17.8631 62.0291 17.5224 61.6519 17.2508L61.5519 17.3897ZM62.3367 18.3453C62.5192 18.7102 62.6128 19.1713 62.6128 19.7325H62.784C62.784 19.1534 62.6875 18.6641 62.4898 18.2688L62.3367 18.3453ZM62.6128 19.7325C62.6128 20.8175 62.1936 21.6534 61.3549 22.2505L61.4541 22.39C62.3406 21.759 62.784 20.8697 62.784 19.7325H62.6128ZM61.3557 22.25C60.5117 22.8365 59.3901 23.1338 57.9834 23.1338V23.305C59.413 23.305 60.5722 23.0029 61.4533 22.3905L61.3557 22.25ZM64.5786 23.0001V11.443H64.4074V23.0001H64.5786ZM64.493 11.5286H66.5106V11.3574H64.493V11.5286ZM66.425 11.443V23.0001H66.5962V11.443H66.425ZM66.5106 22.9145H64.493V23.0857H66.5106V22.9145ZM64.5786 9.60087V7.01313H64.4074V9.60087H64.5786ZM64.493 7.09872H66.5106V6.92754H64.493V7.09872ZM66.425 7.01313V9.60087H66.5962V7.01313H66.425ZM66.5106 9.51528H64.493V9.68645H66.5106V9.51528ZM69.5619 23.0001V7.01313H69.3907V23.0001H69.5619ZM69.4763 7.09872H75.836V6.92754H69.4763V7.09872ZM75.836 7.09872C77.3584 7.09872 78.643 7.43211 79.6939 8.09432L79.7851 7.9495C78.7015 7.26667 77.3837 6.92754 75.836 6.92754V7.09872ZM79.6946 8.09477C80.7469 8.74349 81.5548 9.65892 82.1183 10.8438L82.2729 10.7703C81.6961 9.55743 80.8665 8.61613 79.7844 7.94905L79.6946 8.09477ZM82.1183 10.8438C82.682 12.029 82.9653 13.4194 82.9653 15.0176H83.1365C83.1365 13.3993 82.8496 11.9827 82.2729 10.7703L82.1183 10.8438ZM82.9653 15.0176C82.9653 16.2088 82.8055 17.2888 82.4871 18.2584L82.6498 18.3118C82.9747 17.3224 83.1365 16.224 83.1365 15.0176H82.9653ZM82.4871 18.2584C82.1688 19.2278 81.6993 20.0578 81.0793 20.75L81.2068 20.8642C81.844 20.1528 82.3248 19.3015 82.6498 18.3118L82.4871 18.2584ZM81.0786 20.7507C80.4734 21.4424 79.7311 21.9759 78.8507 22.3512L78.9178 22.5086C79.821 22.1237 80.5846 21.5753 81.2074 20.8634L81.0786 20.7507ZM78.8507 22.3512C77.9712 22.726 76.9668 22.9145 75.836 22.9145V23.0857C76.9858 23.0857 78.0137 22.894 78.9178 22.5086L78.8507 22.3512ZM75.836 22.9145H69.4763V23.0857H75.836V22.9145ZM71.6035 21.2216H75.5509V21.0504H71.6035V21.2216ZM75.5509 21.2216C76.3638 21.2216 77.0982 21.096 77.7528 20.8431L77.6911 20.6834C77.0591 20.9275 76.3461 21.0504 75.5509 21.0504V21.2216ZM77.7537 20.8427C78.4233 20.5748 78.997 20.1801 79.4737 19.6587L79.3474 19.5432C78.8884 20.0452 78.3364 20.4253 77.6901 20.6837L77.7537 20.8427ZM79.4737 19.6587C79.9512 19.1364 80.3149 18.4818 80.5666 17.6972L80.4036 17.6449C80.1582 18.4101 79.8056 19.042 79.3474 19.5432L79.4737 19.6587ZM80.5666 17.6972C80.8185 16.9121 80.9435 16.0038 80.9435 14.9737H80.7723C80.7723 15.9904 80.6488 16.8804 80.4036 17.6449L80.5666 17.6972ZM80.9435 14.9737C80.9435 13.591 80.7229 12.4369 80.2771 11.5154L80.123 11.5899C80.5543 12.4813 80.7723 13.6079 80.7723 14.9737H80.9435ZM80.2771 11.5154C79.8315 10.5945 79.1983 9.90794 78.377 9.45994L78.295 9.61021C79.0819 10.0394 79.6913 10.6979 80.123 11.5899L80.2771 11.5154ZM78.3786 9.46085C77.5741 8.99899 76.6305 8.76966 75.5509 8.76966V8.94084C76.6058 8.94084 77.5189 9.16472 78.2934 9.6093L78.3786 9.46085ZM75.5509 8.76966H71.6035V8.94084H75.5509V8.76966ZM71.5179 8.85525V21.136H71.6891V8.85525H71.5179ZM89.56 23.1119C88.4614 23.1119 87.5273 22.8735 86.7537 22.4007L86.6645 22.5468C87.4699 23.039 88.4363 23.283 89.56 23.283V23.1119ZM86.7537 22.4007C85.9794 21.9275 85.3836 21.2535 84.9662 20.3756L84.8116 20.4491C85.2422 21.3549 85.8598 22.0551 86.6645 22.5468L86.7537 22.4007ZM84.9667 20.3766C84.5635 19.4982 84.3605 18.4655 84.3605 17.2764H84.1893C84.1893 18.4848 84.3956 19.5428 84.8111 20.448L84.9667 20.3766ZM84.3605 17.2764C84.3605 16.0576 84.5636 15.0104 84.9667 14.1322L84.8111 14.0608C84.3955 14.9663 84.1893 16.039 84.1893 17.2764H84.3605ZM84.9664 14.1328C85.3841 13.2398 85.973 12.5587 86.7324 12.0858L86.6419 11.9405C85.8517 12.4326 85.2417 13.1403 84.8114 14.0602L84.9664 14.1328ZM86.7334 12.0852C87.492 11.5985 88.4109 11.3531 89.4942 11.3531V11.182C88.3845 11.182 87.4321 11.4336 86.641 11.9411L86.7334 12.0852ZM89.4942 11.3531C90.6802 11.3531 91.6487 11.6206 92.4058 12.1491L92.5037 12.0088C91.7111 11.4554 90.7059 11.182 89.4942 11.182V11.3531ZM92.4058 12.1491C93.1652 12.6793 93.7178 13.4103 94.0631 14.3455L94.2236 14.2862C93.8672 13.3207 93.294 12.5604 92.5037 12.0088L92.4058 12.1491ZM94.0632 14.3459C94.4089 15.2676 94.5398 16.344 94.4527 17.5773L94.6235 17.5894C94.7119 16.3374 94.5796 15.2354 94.2235 14.2858L94.0632 14.3459ZM94.5381 17.4978H86.2266V17.669H94.5381V17.4978ZM86.1411 17.5861C86.1706 18.4996 86.318 19.2641 86.5869 19.8766L86.7436 19.8078C86.4862 19.2214 86.3412 18.4801 86.3122 17.5806L86.1411 17.5861ZM86.5876 19.8781C86.8715 20.4907 87.2694 20.9577 87.7826 21.2746L87.8725 21.129C87.3915 20.8319 87.0146 20.3924 86.7429 19.8062L86.5876 19.8781ZM87.7841 21.2756C88.2961 21.5768 88.889 21.726 89.56 21.726V21.5548C88.9152 21.5548 88.3531 21.4117 87.8709 21.128L87.7841 21.2756ZM89.56 21.726C90.3925 21.726 91.0776 21.5251 91.6079 21.1161L91.5033 20.9805C91.0102 21.3609 90.3649 21.5548 89.56 21.5548V21.726ZM91.607 21.1168C92.1496 20.7098 92.4972 20.1732 92.6479 19.5102L92.4809 19.4723C92.3392 20.0959 92.0143 20.5973 91.5043 20.9798L91.607 21.1168ZM92.5644 19.5769H94.4723V19.4057H92.5644V19.5769ZM94.3875 19.4801C94.287 20.2407 94.0149 20.8906 93.5726 21.4328L93.7053 21.541C94.1694 20.972 94.4529 20.2916 94.5572 19.5025L94.3875 19.4801ZM93.5718 21.4339C93.1429 21.9772 92.5849 22.3926 91.8955 22.6798L91.9614 22.8378C92.6755 22.5403 93.2579 22.1078 93.7061 21.5399L93.5718 21.4339ZM91.8955 22.6798C91.2057 22.9673 90.4276 23.1119 89.56 23.1119V23.283C90.4468 23.283 91.2477 23.1352 91.9614 22.8378L91.8955 22.6798ZM86.317 16.4136L86.1197 16.1504L85.9827 16.2531L86.1801 16.5163L86.317 16.4136ZM86.0512 16.2874H92.7837V16.1162H86.0512V16.2874ZM92.7159 16.1496L92.4966 16.4347L92.6322 16.5391L92.8515 16.254L92.7159 16.1496ZM92.65 16.4883C92.6647 15.6179 92.5397 14.9083 92.2681 14.3653L92.115 14.4418C92.3698 14.9514 92.4933 15.6307 92.4788 16.4854L92.65 16.4883ZM92.2694 14.3678C92.014 13.812 91.6436 13.4021 91.1572 13.1437L91.0769 13.2949C91.5261 13.5336 91.8721 13.9132 92.1138 14.4393L92.2694 14.3678ZM91.16 13.1453C90.6913 12.8732 90.1349 12.739 89.4942 12.739V12.9102C90.1108 12.9102 90.6363 13.0391 91.0741 13.2933L91.16 13.1453ZM89.4942 12.739C88.8525 12.739 88.2819 12.8809 87.7848 13.1671L87.8702 13.3154C88.3381 13.046 88.8786 12.9102 89.4942 12.9102V12.739ZM87.7848 13.1671C87.2868 13.4538 86.8956 13.876 86.611 14.4302L86.7633 14.5084C87.0343 13.9807 87.4034 13.5842 87.8702 13.3154L87.7848 13.1671ZM86.6106 14.431C86.3404 14.9715 86.1926 15.6497 86.163 16.4618L86.3341 16.4681C86.3631 15.672 86.5077 15.0197 86.7637 14.5076L86.6106 14.431ZM94.7174 23.0488L100.682 14.4303L100.542 14.3329L94.5767 22.9514L94.7174 23.0488ZM100.682 14.3325L95.5286 6.96408L95.3883 7.06218L100.542 14.4306L100.682 14.3325ZM95.4585 7.09872H97.9366V6.92754H95.4585V7.09872ZM97.8656 7.06097L101.901 13.0478L102.043 12.9522L98.0075 6.9653L97.8656 7.06097ZM101.972 13.0856H102.059V12.9144H101.972V13.0856ZM102.13 13.0477L106.144 7.06079L106.001 6.96548L101.988 12.9524L102.13 13.0477ZM106.073 7.09872H108.551V6.92754H106.073V7.09872ZM108.48 6.96426L103.371 14.3108L103.511 14.4085L108.621 7.062L108.48 6.96426ZM103.371 14.4083L109.335 23.0487L109.476 22.9514L103.511 14.311L103.371 14.4083ZM109.406 22.9145H106.884V23.0857H109.406V22.9145ZM106.955 22.9517L102.108 15.8684L101.967 15.965L106.813 23.0484L106.955 22.9517ZM102.037 15.8311H101.972V16.0023H102.037V15.8311ZM101.901 15.8684L97.0545 22.9517L97.1958 23.0484L102.042 15.965L101.901 15.8684ZM97.1251 22.9145H94.6471V23.0857H97.1251V22.9145Z" fill="white" mask="url(#path-1-outside-1_313_11)"/>
</svg>